<?xml version="1.0" encoding="UTF-8"?>
<svg id="Layer_1" xmlns="http://www.w3.org/2000/svg" viewBox="0 0 180.86 59.44">
  <path d="M21.79,21.47v7.7c0,1.47-.36,2.63-1.08,3.48-.72.85-1.66,1.27-2.82,1.27-.8,0-1.49-.21-2.08-.62-.59-.42-1.03-.98-1.32-1.69-.29-.71-.44-1.52-.44-2.43v-10.76h-.76c-1.64,0-2.97,1.33-2.97,2.97v8.03c0,1.26.18,2.4.55,3.4.36,1.01.88,1.84,1.54,2.51.66.67,1.46,1.18,2.39,1.54.93.36,1.96.53,3.09.53,1.59,0,2.96-.33,4.11-.98,1.15-.65,2.02-1.58,2.62-2.77.6-1.19.9-2.6.9-4.23v-11h-.66c-1.69,0-3.05,1.37-3.05,3.05Z"/>
  <path d="M40.24,21.19v5.36h-7.67v-8.12h-.65c-1.7,0-3.08,1.38-3.08,3.08v15.69h3.73v-7.33h7.67v7.33h3.74v-18.76h-.97c-1.53,0-2.77,1.24-2.77,2.77Z"/>
  <path d="M51.07,18.42h-1.26c-1.36,0-2.45,1.1-2.45,2.45v16.31h12.06v-3.32h-8.34v-15.45Z"/>
  <path d="M75.34,33.86h-8.89v-4.34h6.68v-3.28h-6.68v-4.5h8.33v-3.33h-8.86c-1.73,0-3.13,1.4-3.13,3.13v15.63h12.55v-3.32Z"/>
  <path d="M90.82,21.44v9.66h-.05l-8.34-12.68h-.66c-1.68,0-3.04,1.36-3.04,3.04v15.72h3.7v-12.43h.05l8.25,12.43h3.8v-18.76h-.69c-1.67,0-3.02,1.35-3.02,3.02Z"/>
  <path d="M113.85,27.84c0-1.38-.23-2.65-.69-3.81-.46-1.16-1.11-2.16-1.95-2.98-.84-.82-1.86-1.46-3.08-1.93-1.22-.46-2.56-.7-4.02-.7h-2.93c-1.81,0-3.27,1.46-3.27,3.27v15.49h6.28c1.49,0,2.84-.23,4.05-.68,1.21-.46,2.23-1.09,3.05-1.91.82-.82,1.45-1.81,1.9-2.96.44-1.15.66-2.41.66-3.79ZM109.56,30.22c-.29.74-.69,1.38-1.21,1.92-.52.54-1.16.96-1.92,1.27-.76.31-1.58.46-2.48.46h-2.38v-10.17c0-1.08.87-1.95,1.95-1.95h.67c1.11,0,2.11.26,2.99.78.89.52,1.58,1.24,2.07,2.17.49.93.74,1.97.74,3.13,0,.85-.14,1.65-.43,2.39Z"/>
  <path d="M151.32,30.32c.81-.27,1.49-.65,2.06-1.15.56-.5,1-1.13,1.32-1.89.31-.76.47-1.63.47-2.61,0-.92-.13-1.75-.39-2.5-.26-.75-.65-1.41-1.17-1.97-.52-.57-1.2-1.01-2.05-1.32-.85-.31-1.82-.46-2.92-.46h-4.42c-1.47,0-2.67,1.19-2.67,2.67v16.1h3.66v-6.42h2.15l4.2,6.42h4.4l-4.63-6.81v-.05ZM147.8,27.48h-2.61v-5.76h2.76c1.07,0,1.89.26,2.48.77.59.52.88,1.22.88,2.1s-.3,1.59-.91,2.11c-.61.52-1.48.78-2.6.78Z"/>
  <path d="M162.19,30.07h7.33v-3.32h-7.33v-5.01h8.78v-3.33h-9.23c-1.77,0-3.21,1.44-3.21,3.21v15.55h3.66v-7.11Z"/>
  <rect x="63.24" y="45" width=".65" height="4.82"/>
  <polygon points="70.48 48.73 68.01 45 67.36 45 67.36 49.82 68.01 49.82 68.01 46.09 70.48 49.82 71.13 49.82 71.13 45 70.48 45 70.48 48.73"/>
  <polygon points="77.71 48.73 75.24 45 74.59 45 74.59 49.82 75.24 49.82 75.24 46.09 77.71 49.82 78.37 49.82 78.37 45 77.71 45 77.71 48.73"/>
  <path d="M85.06,45.23c-.35-.21-.75-.32-1.21-.32s-.85.11-1.2.32c-.35.21-.62.51-.82.88-.2.37-.3.8-.3,1.29s.1.93.29,1.3c.2.37.47.67.82.88.35.21.75.32,1.2.32s.86-.11,1.21-.32c.35-.21.62-.5.82-.88s.3-.81.3-1.3-.1-.92-.3-1.29c-.2-.37-.47-.67-.82-.88ZM85.28,48.38c-.14.28-.33.5-.57.66-.24.16-.53.24-.86.24s-.61-.08-.85-.23c-.24-.16-.43-.37-.57-.65s-.2-.61-.2-.98.07-.7.2-.98.33-.5.57-.65.53-.23.85-.23.62.08.86.23.43.37.57.65.2.61.2.98-.07.69-.2.97Z"/>
  <path d="M91.11,48.07c-.04.11-.09.24-.14.39-.05.16-.11.33-.17.52-.05-.18-.1-.35-.15-.49s-.1-.28-.15-.42l-1.17-3.08h-.7l1.83,4.82h.68l1.81-4.82h-.68l-1.17,3.08Z"/>
  <path d="M96.55,45l-1.76,4.82h.68l.43-1.2h2.03l.43,1.2h.69l-1.77-4.82h-.73ZM96.1,48.05l.73-2.01s.03-.1.05-.15c.01-.05.02-.09.03-.13,0,.04.02.08.03.13.02.05.03.1.05.15l.74,2.01h-1.63Z"/>
  <polygon points="101.12 45.6 102.58 45.6 102.58 49.82 103.23 49.82 103.23 45.6 104.68 45.6 104.68 45 101.12 45 101.12 45.6"/>
  <rect x="107.67" y="45" width=".65" height="4.82"/>
  <path d="M115.02,45.23c-.35-.21-.75-.32-1.21-.32s-.85.11-1.2.32-.62.51-.82.88c-.2.37-.3.8-.3,1.29s.1.93.29,1.3c.2.37.47.67.82.88.35.21.75.32,1.2.32s.86-.11,1.21-.32c.35-.21.62-.5.82-.88s.3-.81.3-1.3-.1-.92-.3-1.29c-.2-.37-.47-.67-.82-.88ZM115.25,48.38c-.14.28-.33.5-.57.66-.25.16-.53.24-.86.24s-.61-.08-.85-.23c-.24-.16-.43-.37-.57-.65s-.2-.61-.2-.98.07-.7.2-.98.33-.5.57-.65c.25-.15.53-.23.85-.23s.62.08.86.23c.24.15.43.37.57.65s.2.61.2.98-.07.69-.2.97Z"/>
  <polygon points="122.43 48.73 119.96 45 119.31 45 119.31 49.82 119.96 49.82 119.96 46.09 122.43 49.82 123.08 49.82 123.08 45 122.43 45 122.43 48.73"/>
  <path d="M128.33,47.19l-.79-.19c-.23-.05-.4-.14-.51-.26s-.17-.27-.17-.47c0-.24.09-.43.27-.57.18-.14.42-.21.73-.21.27,0,.49.07.65.2.16.13.25.32.27.56h.66c-.02-.28-.09-.52-.22-.72-.13-.2-.31-.35-.54-.46-.23-.11-.5-.16-.8-.16-.33,0-.62.06-.87.17-.25.12-.45.28-.58.49-.14.21-.21.45-.21.73,0,.35.1.63.3.86.2.22.5.38.89.47l.79.18c.23.05.4.14.51.26s.16.28.16.47c0,.24-.09.42-.28.57-.19.14-.44.21-.76.21-.3,0-.54-.07-.73-.2-.18-.13-.28-.32-.28-.55h-.67c.02.27.1.51.24.71.14.2.33.36.58.47.25.11.53.16.86.16.34,0,.64-.06.9-.17.26-.12.45-.28.59-.49.14-.21.21-.46.21-.75,0-.34-.1-.62-.3-.83-.2-.21-.49-.37-.89-.46Z"/>
  <path d="M138.11,45l-1.76,4.82h.68l.43-1.2h2.03l.43,1.2h.69l-1.77-4.82h-.73ZM137.65,48.05l.73-2.01s.03-.1.05-.15c.01-.05.02-.09.03-.13,0,.04.02.08.03.13.02.05.03.1.05.15l.74,2.01h-1.63Z"/>
  <polygon points="143.63 45 143.58 45 143.58 49.82 144.23 49.82 144.23 47.77 146.13 47.77 146.13 47.18 144.23 47.18 144.23 45.6 146.49 45.6 146.49 45 144.23 45 143.63 45"/>
  <path d="M152.84,47.29c.16-.23.24-.51.24-.85,0-.45-.15-.81-.44-1.06-.29-.26-.7-.38-1.21-.38h-1.82v4.82h.65v-1.91h1.23l.9,1.91h.73l-.98-2.04c.3-.1.53-.26.69-.49ZM151.44,47.33h-1.17v-1.75h1.17c.3,0,.53.07.7.22.17.15.26.36.26.64s-.08.49-.25.65c-.17.16-.4.23-.7.23Z"/>
  <rect x="156.31" y="45" width=".65" height="4.82"/>
  <path d="M163.37,49c-.26.18-.57.26-.92.26-.32,0-.6-.08-.85-.23-.24-.15-.43-.37-.57-.65-.13-.28-.2-.61-.2-.98s.07-.71.2-.98c.13-.28.32-.49.56-.65s.53-.23.85-.23c.35,0,.65.09.91.27s.42.42.51.74h.7c-.06-.33-.18-.62-.38-.86-.2-.24-.44-.43-.73-.57-.29-.14-.62-.2-.99-.2-.46,0-.86.1-1.21.31-.35.21-.62.5-.82.87-.2.37-.29.81-.29,1.31s.1.93.29,1.3c.19.37.46.66.8.87.34.21.74.31,1.2.31.37,0,.7-.07,1-.2.3-.13.55-.32.75-.56.2-.24.34-.52.4-.84h-.69c-.09.3-.26.53-.52.71Z"/>
  <path d="M169.55,45h-.73l-1.76,4.82h.68l.43-1.2h2.03l.43,1.2h.69l-1.77-4.82ZM168.37,48.05l.73-2.01s.03-.1.05-.15c.01-.05.02-.09.03-.13,0,.04.02.08.03.13.02.05.03.1.05.15l.74,2.01h-1.63Z"/>
  <path d="M137.71,27.78c0-1.5-.26-2.89-.77-4.15-.52-1.29-1.23-2.38-2.13-3.26-.91-.89-1.99-1.59-3.25-2.09-1.25-.5-2.62-.75-4.06-.75-1.36,0-2.66.23-3.87.68-.09.03-.18.07-.26.1-.02,0-.04.01-.06.02-.08-.36-.14-.7-.19-1.02.18-.06.34-.14.51-.22.37-.21.7-.5.98-.88.28-.37.49-.8.62-1.29.14-.49.18-.97.12-1.44-.05-.46-.18-.88-.4-1.24-.22-.37-.5-.69-.86-.97-.37-.28-.8-.48-1.27-.61-.35-.09-.69-.14-1.02-.14-.13,0-.27,0-.4.02-.47.06-.89.2-1.25.4-.38.21-.7.5-.97.88-.28.36-.49.79-.62,1.27-.13.47-.17.94-.12,1.4.04.47.17.88.39,1.26.2.36.5.69.87.98.37.28.8.48,1.29.61.17.05.34.09.5.11.39.06.73.31.89.67.06.17.14.34.2.52-.95.47-1.78,1.07-2.47,1.78-.89.9-1.6,1.99-2.09,3.25-.5,1.26-.75,2.63-.75,4.09s.25,2.84.75,4.09c.49,1.26,1.2,2.37,2.09,3.27.42.43.88.82,1.39,1.15-.38.52-.77.96-1.13,1.33-.1-.07-.23-.13-.34-.19-.29-.12-.61-.18-.94-.18-.34,0-.69.07-1.02.21-.35.14-.65.34-.89.56-.24.24-.42.5-.55.8-.12.28-.18.59-.18.93,0,.33.07.66.21,1,.14.33.33.63.55.87.24.24.51.43.79.55.29.12.6.17.94.17.33,0,.66-.07,1.01-.21.33-.13.63-.32.87-.56.24-.23.43-.48.55-.77.12-.28.18-.6.18-.93s-.07-.69-.2-1.03c-.05-.12-.1-.23-.16-.33-.15-.26-.16-.56,0-.82.21-.36.45-.75.72-1.14.45.29.94.53,1.47.73,1.26.52,2.65.77,4.13.77s2.82-.25,4.06-.75c1.23-.48,2.33-1.19,3.25-2.08.9-.88,1.61-1.98,2.14-3.28.5-1.27.77-2.66.77-4.16ZM121.11,40.49h-.17s.03-.17.02-.42l.24-.07c0,.17-.03.34-.09.49ZM121.2,39.78l-.26.07c-.05-.36-.2-.82-.58-1.18h.52s.28.51.31,1.11ZM122.02,11.46c.12-.26.64-.28,1.17-.04.53.25.85.66.73.92-.07.14-.24.21-.47.21-.21,0-.45-.06-.7-.17-.52-.25-.85-.66-.72-.92ZM134.52,23.66c-.18.24-.48.35-.87.35-.64,0-1.5-.32-2.3-.91-1.27-.95-1.91-2.23-1.44-2.87.47-.63,1.89-.38,3.15.56,1.27.95,1.92,2.23,1.45,2.87Z"/>
</svg>